# xmcd CD database file
#
# Track frame offsets:
#	150
#	14225
#	24962
#	37208
#	47394
#	59763
#	71628
#	83970
#	95385
#	107550
#	117627
#	130521
#	140318
#	150743
#	164497
#	177497
#	189701
#	203451
#	217479
#	234121
#	248933
#	260416
#	272995
#	286914
#
# Disc length: 3952 seconds
#
# Revision: 0
# Processed by: cddbd v1.5.2PL0 Copyright (c) Steve Scherf et al.
# Submitted via: CDex 1.51
#
DISCID=690f6e18
DTITLE=Loretta Lynn - Bluberry Hill
DYEAR=1960
DGENRE=Country
TTITLE0=Loretta Lynn - 01 - Back Street Affair (with Conway Twitty)
TTITLE1=Loretta Lynn - 02 - Blueberry Hill
TTITLE2=Loretta Lynn - 03 - The Morning After Baby Let Me Down
TTITLE3=Loretta Lynn - 04 - It'll Feel Good After It Quits Hurtin'
TTITLE4=Loretta Lynn - 05 - Here I Am Again
TTITLE5=Loretta Lynn - 06 - The Pill
TTITLE6=Loretta Lynn - 07 - Ain't It Funny
TTITLE7=Loretta Lynn - 08 - Love Is The Foundation
TTITLE8=Loretta Lynn - 09 - As Soon As I Hang Up The Phone (with Conway Twitty)
TTITLE9=Loretta Lynn - 10 - What Sundown Does To You
TTITLE10=Loretta Lynn - 11 - Hey Loretta
TTITLE11=Loretta Lynn - 12 - Trouble In Paradise
TTITLE12=Loretta Lynn - 13 - They Don't Make 'Em Like My Daddy Anymore
TTITLE13=Loretta Lynn - 14 - When The Tingle Becomes A Chill
TTITLE14=Loretta Lynn - 15 - The Letter (with Conway Twitty)
TTITLE15=Loretta Lynn - 16 - Out Of My Head And Back In My Bed
TTITLE16=Loretta Lynn - 17 - Somebody Somewhere (Don't Know What He's Missin' Tonight)
TTITLE17=Loretta Lynn - 18 - She's Got You
TTITLE18=Loretta Lynn - 19 - Why Can't He Be You
TTITLE19=Loretta Lynn - 20 - I Can't Feel You Anymore
TTITLE20=Loretta Lynn - 21 - You're The Reason Our Kids Are Ugly
TTITLE21=Loretta Lynn - 22 - I've Got A Picutre Of Us On My Mind
TTITLE22=Loretta Lynn - 23 - I Lie
TTITLE23=Loretta Lynn - 24 - Who Was That Stranger
EXTD=YEAR: 1960
EXTT0=
EXTT1=
EXTT2=
EXTT3=
EXTT4=
EXTT5=
EXTT6=
EXTT7=
EXTT8=
EXTT9=
EXTT10=
EXTT11=
EXTT12=
EXTT13=
EXTT14=
EXTT15=
EXTT16=
EXTT17=
EXTT18=
EXTT19=
EXTT20=
EXTT21=
EXTT22=
EXTT23=
PLAYORDER=
